<svg width="48" height="48" viewBox="0 0 48 48" fill="none" xmlns="http://www.w3.org/2000/svg">
<path d="M20.6621 42.8538C19.0533 43.663 17.0161 43.4536 15.6168 42.3207C14.7029 41.5973 14.0746 40.5692 13.8747 39.4078L13.8271 39.1222L12.2279 30.0312C11.7519 27.4229 13.5606 24.9479 16.0928 24.5195C18.4631 24.1006 20.7287 25.519 21.4522 27.7466L32.8374 14.1814H15.1218C18.0823 19.2362 11.4378 24.2054 7.43964 19.7693L1.50906 12.6964L1.31867 12.4775C0.737994 11.7826 0.376255 10.9639 0.252504 10.0786C0.052597 8.66972 0.519046 7.17517 1.50906 6.13756C2.44196 5.14754 3.79371 4.60494 5.15499 4.66206H43.0326C44.8699 4.66206 46.4786 5.69967 47.2878 7.27988C48.135 8.9553 47.9066 11.04 46.6785 12.4775L22.3184 41.5021C21.871 42.0637 21.3094 42.5397 20.6621 42.8538Z" fill="#006BB9"/>
</svg>
